<svg id="Capa_1" data-name="Capa 1" xmlns="http://www.w3.org/2000/svg" viewBox="0 0 230.98 156.57"><defs><style>.cls-1{fill:#fff;}</style></defs><title>logo-white</title><path class="cls-1" d="M193.08,43.62H117.85l-11.44,59.74c-1.83,9.28-7.58,16-18.69,16s-13.86-6.93-12-16l5-25.73-.22,0c4.75-31.88-29.84-32.9-29.84-32.9l-.2-.31L39,103.3c-6.21,31.37,12.68,47.32,42.22,47.32,15.88,0,30.66-4.12,42-13.14,9.74-7.84,16.87-19.15,19.87-34.12,0,0,2.75-12.94,3.47-17.32,1.83-11,8.3-15,8.3-15s3.27,6.74,10.13,7.91a14.74,14.74,0,0,0,5.29-.26,10.15,10.15,0,0,1-4.83-.72c-3.21-1.11-6.93-3.92-9.68-9.67,0,0-1.37-3,2.09-1.63,2.49,1.17,7.85,2.35,11.51,1.63a.84.84,0,0,1,.72-.26,8.4,8.4,0,0,0,2.29-1.18s-6.21.92-7.85-.72A25.45,25.45,0,0,0,173,62.71,24.69,24.69,0,0,1,187.79,60c2,.26,4.38,1.64,7.12,2.09a131.6,131.6,0,0,0,14.77,1.83s2.09,6.48-.45,7.39l-1.38.72s.46,5.1-.72,7.39c0,0-2.28-5.1-3.2-4.65,0,0-5.75,1.83-9.22,5.76a9.6,9.6,0,0,0-2.28,4.18L192,86.76V90s.72,4.84,2.09,6.93c.46-.26,2.55-.46,3.92-1.64-.26.27-.72,2.29-2.09,3.47.46.46.92,1.37.46,1.83a10.14,10.14,0,0,1-11.51,2.29s1.38-7.39-4.37-7.13c-8.76.2-17.78,6.67-22.16,11-9.94,9.47-35.56,42.22-35.56,42.22h34.58L164,115.39H178.5c29.55,0,47.78-16.14,51.71-35.75C234.39,58.13,222.17,43.43,193.08,43.62Z" transform="translate(-6.02 -43.62)"/><path class="cls-1" d="M236.91,181.23c.9-5.09-5.3-8-13.87-8-7.68,0-13.56,2.27-15,6.43L206.48,174H193.14l-16.46,20.66-3-5.18c5.53-1.12,8.92-4,9.82-7.23,1.12-4.63-2.59-8.12-12-8.12H154.33l-21.77.13h-2.05l-27,.13H92l-3.26,12.75-9-12.79H68.07l-4.73,18.39-5.18-18.39-13.33.13-4.19,5.18-.32.4a6.41,6.41,0,0,0-2.48-3.43c-2.52-1.83-6.29-2.65-12.41-2.49l-13.17.21L6,200.19l12-.08,2.25-7,3.79-.33a30.53,30.53,0,0,0,7-.93l-6.14,7.66H37.06l2.81-3.71H52.18l.9,3.71h20.2L76.54,187l9,12.54H97.2l4.86-18.74h7.67L105,199.52h11.64l4.86-18.74h7.67l-4.86,18.74,23.82-.13h11.51l2.27-8.92,4.73,8.92H185.5l2.82-3.71h12.31l.89,3.71h12.15c2.05.13,4.28,0,6.65,0,9.5,0,15-3.49,15-8.12,0-7.1-14.78-7.23-14.78-10.17,0-.8.9-1.25,2.05-1.25,1.47,0,2.37.68,2,1.92ZM23.33,186.71l-1.09.26.9-5.95,2.09-.05a5.81,5.81,0,0,1,3.34.72,1.88,1.88,0,0,1,.84,1.47C29.46,185.09,27.56,186.6,23.33,186.71Zm20.73,3.12,5.18-7,1.57,7Zm105.41,3H137.26l.89-3.49h9.95l1.56-5.88h-9.94l.8-3.17H152.7Zm22.09-10.17c-.44,1.47-1.69,2.14-4,2.14H163l1.12-4.28h4.64C170.89,180.68,171.92,181.45,171.56,182.7Zm20.88,6.55,5.18-7,1.57,7Zm30.15,2.24c0,.8-1,1.25-2.27,1.25-2,0-2.81-.67-2.72-2.14h-6.55l-1.47-5C213.8,188.9,222.46,189.13,222.59,191.49Z" transform="translate(-6.02 -43.62)"/></svg>